<?xml version="1.0" standalone="no"?>
<!DOCTYPE svg PUBLIC "-//W3C//DTD SVG 20010904//EN"
 "http://www.w3.org/TR/2001/REC-SVG-20010904/DTD/svg10.dtd">
<svg version="1.0" xmlns="http://www.w3.org/2000/svg"
 width="319.000000pt" height="216.000000pt" viewBox="0 0 319.000000 216.000000"
 preserveAspectRatio="xMidYMid meet">

<g transform="translate(0.000000,216.000000) scale(0.100000,-0.100000)"
fill="#000000" stroke="none">
<path d="M2439 2091 c-60 -60 -27 -156 57 -168 36 -5 46 -1 75 25 28 25 34 37
34 72 0 35 -6 47 -33 71 -44 40 -93 40 -133 0z m106 3 c8 -4 23 -20 31 -36 42
-81 -53 -154 -122 -95 -69 60 3 164 91 131z"/>
<path d="M2825 1844 c-1242 -677 -1260 -688 -1856 -1105 -345 -241 -500 -345
-734 -494 -193 -122 -180 -113 -172 -121 6 -6 547 266 987 496 564 295 672
362 1165 727 366 271 597 433 790 556 143 91 172 113 164 121 -3 3 -158 -78
-344 -180z m30 -13 c-6 -4 -80 -57 -165 -116 -85 -60 -306 -219 -490 -355
-184 -135 -340 -250 -347 -253 -8 -5 -14 5 -18 30 -4 21 -12 57 -19 80 l-13
43 306 169 c411 227 745 410 751 411 2 0 0 -4 -5 -9z m-1514 -907 c13 -14 38
-34 56 -45 18 -12 33 -24 33 -29 0 -5 -98 -60 -217 -123 -309 -163 -901 -467
-908 -467 -4 0 103 73 237 163 134 90 360 245 503 345 143 100 262 182 265
182 4 0 17 -12 31 -26z"/>
<path d="M2813 1525 c-32 -14 -63 -59 -63 -92 0 -34 37 -81 74 -93 95 -31 167
86 99 159 -34 36 -68 44 -110 26z m76 -20 c31 -15 41 -33 41 -70 0 -13 -3 -31
-6 -40 -10 -24 -60 -46 -89 -39 -31 8 -65 49 -65 78 0 28 26 65 54 76 29 12
33 12 65 -5z"/>
<path d="M563 1013 c-32 -6 -73 -59 -73 -93 0 -56 23 -85 83 -104 45 -14 117
47 117 99 0 32 -32 77 -65 91 -19 8 -36 13 -37 13 -2 -1 -13 -4 -25 -6z m85
-49 c12 -14 22 -36 22 -48 0 -31 -34 -72 -65 -80 -29 -7 -79 15 -89 39 -36 94
66 162 132 89z"/>
<path d="M908 231 c-27 -24 -33 -36 -33 -71 0 -35 6 -47 33 -71 44 -40 93 -40
133 0 62 62 20 171 -65 171 -25 0 -45 -9 -68 -29z m122 -16 c33 -35 31 -81 -4
-112 -69 -59 -164 14 -122 95 18 34 28 40 72 41 20 1 38 -7 54 -24z"/>
</g>
</svg>
