<?xml version="1.0" standalone="no"?>
<!DOCTYPE svg PUBLIC "-//W3C//DTD SVG 20010904//EN"
 "http://www.w3.org/TR/2001/REC-SVG-20010904/DTD/svg10.dtd">
<svg version="1.0" xmlns="http://www.w3.org/2000/svg"
 width="319.000000pt" height="216.000000pt" viewBox="0 0 319.000000 216.000000"
 preserveAspectRatio="xMidYMid meet">

<g transform="translate(0.000000,216.000000) scale(0.100000,-0.100000)"
fill="#000000" stroke="none">
<path d="M2439 2091 c-60 -60 -27 -156 57 -168 36 -5 46 -1 75 25 28 25 34 37
34 72 0 35 -6 47 -33 71 -44 40 -93 40 -133 0z m106 3 c23 -9 48 -62 41 -90
-16 -62 -93 -85 -136 -39 -61 65 10 161 95 129z"/>
<path d="M2870 1901 c-576 -249 -1100 -485 -1301 -587 -174 -89 -249 -147
-621 -481 -357 -321 -520 -454 -748 -606 -157 -105 -145 -95 -137 -103 6 -6
77 23 527 219 655 284 1093 490 1220 574 97 64 214 161 474 396 340 306 573
494 760 613 89 56 133 90 126 97 -3 3 -138 -52 -300 -122z m160 44 c0 -2 -28
-23 -62 -46 -179 -121 -367 -275 -689 -565 -284 -255 -362 -320 -473 -395
-131 -88 -491 -260 -1124 -535 -147 -64 -312 -136 -366 -160 -55 -24 -101 -42
-103 -40 -2 2 33 30 79 61 181 127 399 308 704 584 178 162 330 291 343 291 5
0 14 -7 22 -16 29 -35 93 -58 160 -59 56 0 73 4 115 30 84 53 125 140 106 225
-6 25 -7 48 -3 53 10 10 447 209 781 354 151 67 327 143 390 171 131 58 120
53 120 47z"/>
<path d="M2822 1528 c-35 -9 -72 -57 -72 -93 0 -35 37 -82 74 -95 93 -30 165
82 101 158 -28 34 -56 42 -103 30z m67 -23 c31 -15 41 -33 41 -70 0 -13 -3
-31 -6 -40 -10 -24 -60 -46 -89 -39 -31 8 -65 49 -65 78 0 28 26 65 54 76 29
12 33 12 65 -5z"/>
<path d="M563 1013 c-34 -7 -73 -59 -73 -98 0 -41 39 -91 77 -98 56 -11 123
43 123 98 0 32 -32 77 -65 91 -19 8 -36 13 -37 13 -2 -1 -13 -4 -25 -6z m85
-49 c12 -14 22 -36 22 -48 0 -31 -34 -72 -65 -80 -29 -7 -79 15 -89 39 -36 94
66 162 132 89z"/>
<path d="M908 231 c-27 -24 -33 -36 -33 -71 0 -35 6 -47 33 -71 44 -40 93 -40
133 0 62 62 20 171 -65 171 -25 0 -45 -9 -68 -29z m122 -16 c33 -35 31 -81 -4
-112 -69 -59 -164 14 -122 95 18 34 28 40 72 41 20 1 38 -7 54 -24z"/>
</g>
</svg>
